<svg width="349" height="251" viewBox="0 0 349 251" fill="none" xmlns="http://www.w3.org/2000/svg">
<path d="M179.218 246.347C176.799 246.898 174.349 247.388 171.93 247.816C169.695 248.214 167.337 248.735 165.071 248.735C161.09 248.735 157.324 248.919 153.374 248.031C141.983 245.459 132.735 237.436 127.621 227.055C126.703 225.157 125.57 223.289 124.927 221.268C130.193 221.329 139.257 221.39 142.626 217.838C145.963 214.317 147.311 209.662 147.311 204.487C147.311 199.313 145.596 195.148 142.197 191.994C138.798 188.84 134.297 187.278 128.693 187.278H103.308V188.228H103.89C105.635 188.228 107.35 188.871 108.544 190.157C109.616 191.29 110.198 192.668 110.259 194.26V244.417C110.259 247.847 113.046 250.603 116.445 250.603V221.268C116.445 221.268 119.078 221.237 119.323 221.237C120.517 221.268 121.895 221.39 122.752 221.452C125.355 225.892 127.529 230.577 130.53 234.772C136.808 243.529 146.913 248.092 157.262 249.899C159.62 250.297 161.978 250.542 164.336 250.695C168.347 250.909 172.389 250.787 176.401 250.633C176.921 250.633 178.728 250.817 179.095 250.48C179.34 250.235 179.157 249.225 179.157 248.919C179.157 248.061 179.003 247.235 179.157 246.377L179.218 246.347ZM119.629 220.472H116.475V188.534H128.295C132.031 188.595 134.94 190.034 137.022 192.821C139.104 195.607 140.115 201.058 140.115 205.682C140.115 211.285 138.247 215.297 134.48 217.685C133.531 218.389 132.337 218.941 130.959 219.369C129.55 219.767 128.234 220.074 127.009 220.227C125.784 220.38 123.304 220.472 119.629 220.472ZM91.4271 189.606C93.3869 186.421 96.0203 183.604 99.0518 181.43C102.328 179.072 106.095 177.388 109.953 177.082C122.14 176.132 126.029 182.563 126.029 182.563V179.256C122.722 174.908 109.218 176.469 109.218 176.469C105.421 176.929 101.93 178.827 98.8374 181.093C95.7447 183.328 92.9275 186.023 90.8759 189.238C89.6817 188.442 88.4569 187.707 87.1402 187.156C83.2207 185.472 78.5663 185.135 74.7386 187.248C72.8401 188.289 70.6048 190.402 69.8393 192.515C67.757 198.18 69.9924 203.691 69.9924 203.691C70.4211 204.794 70.9722 205.835 71.5847 206.845C72.1052 207.703 72.687 208.529 73.3607 209.295C74.2181 210.336 76.1472 212.357 78.9031 212.541C86.0072 213.031 87.2626 203.814 87.9976 198.7C88.3038 196.526 89.0387 194.383 89.9879 192.3C91.0903 193.525 92.0395 194.903 92.7744 196.342C95.7753 201.977 96.6939 208.713 96.5408 215.052C96.5102 216.858 96.4796 218.788 96.0815 220.564C96.0815 220.564 92.5295 236.762 79.0868 238.109C73.82 238.63 65.9198 237.405 59.8568 226.749C53.7938 216.093 56.3354 204.181 56.3354 204.181C58.9075 186.758 73.4832 185.411 73.4832 185.411L72.5339 184.921C71.3703 184.308 67.5427 185.992 66.3791 186.421C64.603 187.095 62.8883 187.983 61.296 189.024C58.7544 190.708 56.4578 192.79 54.6818 195.24C49.7212 202.099 47.3021 211.592 50.1499 219.798C54.1919 231.342 65.0317 239.824 77.4945 239.242C90.9372 238.599 101.287 228.311 103.308 215.266C105.084 203.691 96.847 194.536 96.847 194.536C95.2241 192.729 93.3869 191.075 91.3965 189.667L91.4271 189.606ZM86.4053 202.711C85.7316 205.682 84.568 209.019 81.7202 210.122C79.9442 210.826 77.8926 210.428 76.3003 209.417C74.708 208.407 73.5138 206.845 72.6258 205.161C70.8497 201.823 70.1148 197.812 71.2478 194.199C72.3808 190.586 75.5654 187.554 79.3012 187.156C81.6896 186.88 84.1087 187.677 86.1603 188.963C87.3545 189.728 88.4262 190.677 89.4367 191.719C87.8445 195.179 87.232 198.976 86.3746 202.711H86.4053ZM86.2215 243.009V247.173C78.1376 249.592 69.5943 250.205 69.5943 250.205C53.6713 251.92 35.3599 250.327 35.3599 250.327C9.94442 247.204 4.2489 231.771 4.2489 231.771C-5.09053 209.601 7.61722 191.32 7.61722 191.32C25.8061 165.323 60.1017 181.154 60.1017 181.154L58.5707 184.278C56.8865 182.992 55.0799 182.012 53.2426 181.215C47.7921 178.827 41.6372 177.908 35.7274 178.613C17.7528 180.756 7.12728 200.782 8.99516 217.563C11.2611 238.018 24.0914 247.816 48.1289 249.256C76.8821 250.389 86.2522 243.009 86.2522 243.009H86.2215ZM256.413 239.212L256.536 185.502C256.536 176.439 250.259 176.714 250.259 176.714V175.887C256.658 175.887 261.833 181.062 261.833 187.432L261.925 233.547C288.106 244.448 291.413 228.035 291.413 228.035H292.791L286.973 239.181H256.383L256.413 239.212ZM195.447 189.606C197.407 186.421 200.04 183.604 203.072 181.43C206.348 179.072 210.114 177.388 213.973 177.082C226.16 176.132 230.049 182.563 230.049 182.563V179.256C226.742 174.908 213.238 176.469 213.238 176.469C209.441 176.929 205.95 178.827 202.857 181.093C199.765 183.328 196.947 186.023 194.896 189.238C193.702 188.442 192.477 187.707 191.16 187.156C187.24 185.472 182.586 185.135 178.758 187.248C176.86 188.289 174.625 190.402 173.859 192.515C171.777 198.18 174.012 203.691 174.012 203.691C174.441 204.794 174.992 205.835 175.604 206.845C176.125 207.703 176.707 208.529 177.38 209.295C178.238 210.336 180.167 212.357 182.923 212.541C190.027 213.031 191.282 203.814 192.017 198.7C192.324 196.526 193.058 194.383 194.008 192.3C195.11 193.525 196.059 194.903 196.794 196.342C199.795 201.977 200.714 208.713 200.561 215.052C200.53 216.858 200.499 218.788 200.101 220.564C200.101 220.564 196.549 236.762 183.107 238.109C177.84 238.63 169.94 237.405 163.877 226.749C157.814 216.093 160.355 204.181 160.355 204.181C162.927 186.758 177.503 185.411 177.503 185.411L176.554 184.921C175.39 184.308 171.562 185.992 170.399 186.421C168.623 187.095 166.908 187.983 165.316 189.024C162.774 190.708 160.478 192.79 158.702 195.24C153.741 202.099 151.322 211.592 154.17 219.798C158.212 231.342 169.052 239.824 181.514 239.242C194.957 238.599 205.307 228.311 207.328 215.266C209.104 203.691 200.867 194.536 200.867 194.536C199.244 192.729 197.407 191.075 195.416 189.667L195.447 189.606ZM190.425 202.711C189.751 205.682 188.588 209.019 185.74 210.122C183.964 210.826 181.912 210.428 180.32 209.417C178.728 208.407 177.534 206.845 176.646 205.161C174.87 201.823 174.135 197.812 175.268 194.199C176.401 190.586 179.585 187.554 183.321 187.156C185.709 186.88 188.128 187.677 190.18 188.963C191.374 189.728 192.446 190.677 193.457 191.719C191.864 195.179 191.252 198.976 190.394 202.711H190.425ZM301.426 225.616C301.212 225.769 300.937 225.953 300.569 226.198C300.845 226.014 301.12 225.8 301.426 225.616ZM248.911 239.212H250.289L244.471 250.358H213.881L214.003 195.087C214.003 186.023 207.726 186.299 207.726 186.299V185.472C214.126 185.472 219.301 190.647 219.301 197.016L219.393 244.693C245.574 255.594 248.881 239.181 248.881 239.181L248.911 239.212ZM337.008 216.92C334.773 210.704 332.538 206.355 330.333 200.109C327.975 193.433 326.046 189.238 324.515 186.697C322.218 183.022 320.167 180.542 318.329 179.256C314.349 176.469 309.633 174.846 304.856 176.439C302.192 177.327 299.559 178.582 297.201 179.899L297.476 180.848C299.344 179.746 301.059 178.613 302.927 177.694C304.856 176.745 306.938 176.194 309.051 176.224H309.235C315.022 176.347 318.697 183.053 316.4 188.381L299.283 227.055C299.742 226.718 300.11 226.473 300.447 226.228L301.763 225.31C304.58 223.411 308.102 221.36 308.102 221.36C308.102 221.36 309.786 220.38 311.991 219.4C315.818 217.655 320.136 216.95 324.239 217.869C329.537 219.033 335.355 222.921 331.374 235.139C330.976 236.395 330.21 237.711 329.23 239.028C325.831 243.529 320.565 246.193 315.022 247.326C283.636 253.757 256.75 243.009 256.75 243.009V247.173C277.328 252.93 300.14 250.511 312.726 248.857C320.687 247.816 328.036 243.499 332.139 236.609C332.905 235.323 333.609 233.914 334.16 232.383C334.559 231.342 334.589 229.872 334.375 228.311V228.127C336.028 233.026 337.988 238.875 339.488 243.315C340.836 247.326 344.602 250.021 348.828 250.021C345.613 241.049 340.162 225.861 336.947 216.889L337.008 216.92ZM331.986 221.115C331.711 220.594 331.405 220.104 331.098 219.676C327.546 214.837 315.971 214.715 307.214 220.349C307.214 220.349 305.162 221.697 302.682 223.595L302.835 223.289L305.468 217.655L316.308 195.087L319.37 189.269C320.565 191.688 321.912 194.597 323.382 198.884L328.924 212.051L332.109 221.176L332.017 221.115H331.986Z" fill="#20434D"/>
<path d="M234.182 66.4784C227.874 62.4976 218.596 61.3034 212.288 59.1599C210.696 55.4242 214.432 41.7365 207.297 43.1757C203.469 44.8293 201.081 48.565 198.57 51.6271C193.885 58.3025 189.016 65.0698 181.085 68.0094C182.923 66.754 184.729 65.4066 186.23 63.7225C188.679 61.1197 206.286 35.6123 196.304 36.9596C191.068 38.307 187.577 43.0839 182.126 43.6044C179.616 43.9412 177.043 43.3901 174.624 42.5327C174.624 42.4714 174.624 42.4102 174.624 42.3183L174.686 42.1959H174.624C174.502 35.7348 173.491 28.7226 169.082 23.6701C161.733 16.5048 154.537 35.8267 151.658 40.5423C151.107 41.614 150.525 42.6858 149.913 43.6963C149.852 43.6963 149.821 43.6963 149.791 43.7575C146.024 43.9106 142.227 42.1346 138.4 41.7978C125.722 40.8791 141.155 56.1897 144.095 59.558C148.168 64.0899 151.138 69.8467 151.322 76.0321C149.791 71.8064 147.249 67.9788 144.034 64.8248C140.696 61.3034 137.267 57.9045 133.439 54.873C131.142 53.0357 124.651 48.3507 124.436 54.1993C124.498 57.9351 126.672 61.2115 127.468 64.7023C128.019 66.8152 128.05 69.0199 127.529 71.1634C123.181 69.7548 110.932 68.04 107.289 72.2657C105.88 73.8887 105.911 76.124 107.35 78.9718C109.799 83.1669 113.198 86.627 116.505 89.9647C118.312 91.802 120.18 93.7005 121.864 95.6909C121.589 97.5588 120.333 99.4573 119.108 101.295C118.404 102.366 117.669 103.469 117.149 104.51C115.434 107.449 115.066 109.44 116.016 110.634C117.455 112.41 121.313 111.583 124.283 110.634C127.009 109.807 129.673 108.674 132.275 107.602C133.745 106.99 135.246 106.378 136.715 105.796C140.421 104.479 147.28 102.856 153.802 105.459C152.118 105.306 150.434 105.061 148.719 105.245C146.3 105.398 144.003 106.347 141.86 107.296C137.542 109.378 121.252 116.268 121.619 121.351C122.048 122.791 123.579 123.158 124.804 123.434C129.489 124.199 134.051 122.699 138.522 124.475C135.674 127.721 133.439 131.487 131.877 135.59C127.988 145.94 133.194 148.298 142.533 145.389C147.494 143.98 153.496 141.347 158.211 139.877C161.488 142.449 163.294 147.532 166.816 150.38C176.002 156.443 172.634 129.742 174.226 125.485C174.9 121.841 176.37 118.35 178.544 115.227C177.901 116.973 177.288 118.779 177.013 120.616C176.308 125.026 176.707 150.074 182.157 150.043C184.178 149.676 185.127 147.594 185.954 146.001C187.791 141.714 189.016 137.366 193.089 134.641C195.63 139.938 204.786 151.636 211.431 147.349C214.432 144.685 214.493 140.551 214.799 137.06C215.044 133.171 214.799 127.751 214.707 123.832C214.707 122.882 214.707 121.964 214.707 121.014C217.8 119.33 221.995 118.902 225.425 117.309C226.803 116.636 228.027 116.085 228.854 114.4C230.967 108.46 215.381 104.785 211.339 103.285C206.011 101.57 201.112 98.508 197.743 93.9761C199.366 95.2622 201.112 96.5176 203.561 97.5588C205.307 98.2937 224.965 105.061 230.293 102.703C230.63 102.55 230.906 102.366 231.12 102.121C231.794 101.386 231.794 100.376 231.12 99.0898C230.171 97.2525 228.487 95.8134 226.68 94.2823C223.465 91.557 220.005 88.893 219.821 83.075C226.19 81.697 243.736 73.3375 234.335 66.3559L234.182 66.4784ZM174.9 43.0226C179.646 45.4417 185.403 44.6149 189.629 41.4303C191.833 39.9911 193.946 38.307 196.427 37.7558C203.316 36.6228 191.741 54.7505 190.364 56.9858C186.873 62.712 180.014 72.5413 172.175 67.1826C171.93 66.9989 171.654 66.8152 171.501 66.5396C170.95 65.5597 172.113 63.5387 172.236 62.4364C172.481 60.3235 172.021 58.0576 171.532 56.0366C173.767 53.0663 174.961 48.4732 174.9 43.0226ZM174.165 74.0112L173.767 73.7356C171.44 77.2264 166.693 78.0838 162.958 75.6034L162.682 76.0015L162.927 75.5728C158.334 73.0007 155.854 69.6017 156.282 66.4477C156.711 63.2631 159.742 59.9255 162.07 60.1092C165.652 60.3848 168.531 59.2518 170.705 56.9246C171.501 60.5991 171.44 63.355 170.46 65.1923C170.123 65.8047 170.184 66.509 170.613 67.1214C171.685 68.6218 175.022 69.3874 179.371 68.7749C177.319 70.1835 175.329 71.3777 173.736 73.6743L174.134 73.9499L174.165 74.0112ZM167.092 43.635C165.989 40.971 164.734 37.9701 164.826 37.2352C165.009 37.2659 165.499 37.4802 166.724 38.4295C169.235 40.4198 171.654 41.9203 173.92 42.9614C173.981 47.8301 172.971 51.9334 171.164 54.7505C170.092 50.8922 168.469 46.9115 167.092 43.635ZM128.111 64.5799C127.498 60.9666 121.068 48.3507 129.918 53.5563C135.001 56.7715 139.257 61.0584 143.483 65.3454C146.973 68.7443 149.729 72.572 151.352 77.1651C151.046 81.6664 148.872 84.3917 147.616 84.9429H147.586C147.218 85.096 146.943 85.0654 146.698 84.851C145.596 83.8711 144.034 83.2281 142.013 82.83C140.941 77.9 135.919 73.7662 128.08 71.4696V71.4084L127.835 71.3165C128.509 69.1424 128.662 66.8152 128.142 64.5799H128.111ZM154.108 95.6602L153.771 95.2928C149.729 98.9061 148.106 98.3855 145.381 97.0076C143.973 96.3033 143.115 93.578 142.84 92.69C142.074 90.2097 142.105 87.5763 142.258 85.5859C142.288 85.0347 142.227 84.4836 142.166 83.9324C143.819 84.2998 145.106 84.8204 146.024 85.6165C146.545 86.1065 147.249 86.1983 147.953 85.8921H148.015C149.699 85.1266 151.169 82.0645 151.567 77.7469C152.455 80.0741 153.19 82.2788 155.057 84.3611C157.691 87.7294 157.14 92.5981 153.833 95.2928L154.139 95.6909L154.108 95.6602ZM127.805 72.4495C135.062 74.5929 139.716 78.2981 140.88 82.7075C135.797 82.0645 129.183 83.1056 124.222 83.963C121.374 84.4529 118.19 84.9735 117.485 84.6979C117.577 84.5448 117.883 84.0855 119.078 83.1362C123.671 79.4923 126.519 76.0015 127.805 72.4495ZM128.815 123.097C127.866 123.097 126.886 123.035 125.937 122.913C125.079 122.791 124.008 122.668 123.242 122.239C117.608 119.116 139.441 109.011 141.982 107.909C144.156 106.959 146.33 106.01 148.658 105.796C150.832 105.581 153.006 105.888 155.18 106.102C155.425 106.102 155.7 106.163 155.945 106.255C156.099 106.316 156.252 106.408 156.405 106.5C157.262 107.051 158.058 107.756 158.701 108.521C159.253 109.195 159.773 109.96 159.957 110.787C159.987 110.94 160.018 111.124 160.018 111.308C160.018 111.644 159.896 111.889 159.62 112.043C158.12 112.9 156.833 114.492 155.731 116.758C155.731 116.728 154.231 116.299 154.108 116.268C153.557 116.146 152.975 116.085 152.393 116.054C151.169 116.023 149.974 116.207 148.811 116.544C146.024 117.371 143.544 119.085 141.4 121.045L138.461 124.26C135.429 122.821 132.03 123.097 128.785 123.066L128.815 123.097ZM156.374 106.071C156.374 106.071 156.742 106.071 156.864 106.071C157.048 106.071 157.232 106.071 157.415 106.01C157.752 105.98 158.058 105.918 158.395 105.857C158.854 105.765 159.314 105.612 159.773 105.459C159.987 105.398 160.202 105.337 160.416 105.275C162.621 104.693 165.009 105.122 166.847 106.439C168.102 107.327 169.082 108.613 169.633 110.052C171.44 115.319 170.644 116.728 168.408 118.657C167.52 119.392 166.295 119.698 164.489 119.606C162.468 119.483 160.385 118.84 158.303 117.677C157.691 117.34 157.201 117.156 156.803 117.034C157.813 115.074 158.916 113.665 160.171 112.931C160.753 112.594 161.059 112.043 161.059 111.338C161.059 109.654 159.069 107.694 156.374 106.102V106.071ZM155.394 117.646C153.404 122.178 152.363 128.394 151.597 133.018C151.138 135.866 150.617 139.05 150.127 139.632C150.005 139.51 149.668 139.05 149.148 137.611C146.698 130.783 143.176 126.649 139.196 124.597C142.043 121.351 148.872 115.074 155.394 117.646ZM183.259 148.696C178.115 153.503 177.258 130.568 177.135 127.904C176.798 123.097 177.35 118.381 179.217 113.91C182.494 110.695 185.954 110.175 187.21 110.634C187.577 110.756 187.761 110.971 187.822 111.308C188.006 112.9 188.832 114.523 190.241 116.299C187.485 120.616 188.251 127.047 192.507 134.182C187.24 137.336 186.965 144.348 183.259 148.696ZM179.401 113.39C180.105 111.553 180.81 109.746 180.963 107.694C181.147 105.245 182.218 102.764 184.239 101.264C185.556 100.284 187.056 99.7635 188.588 99.6104C189.965 99.4879 191.374 99.6104 192.752 100.008C194.681 100.56 196.059 101.754 196.855 103.591C196.916 103.714 196.947 103.805 197.008 103.928C198.968 107.939 192.599 113.972 190.884 115.472C189.69 113.941 188.955 112.502 188.771 111.185C188.679 110.481 188.251 109.96 187.516 109.685C185.77 109.072 182.616 110.328 179.371 113.359L179.401 113.39ZM190.976 117.095C194.375 120.831 199.856 124.352 203.959 126.924C206.409 128.455 209.134 130.17 209.471 130.844C209.287 130.905 208.767 131.028 207.236 130.966C201.112 130.599 196.518 131.426 193.181 133.355C189.384 126.833 188.588 120.984 190.945 117.064L190.976 117.095ZM214.554 120.8C214.554 120.8 214.554 120.77 214.554 120.739C214.554 120.616 214.554 120.739 214.554 120.8ZM225.884 95.2009C227.599 96.6401 229.191 98.0181 230.079 99.7022C230.753 101.019 230.355 101.478 230.202 101.631C227.507 104.51 208.338 98.753 203.745 96.8239C200.683 95.5378 198.631 93.8536 196.641 92.2001L196.396 91.9857C194.497 87.9131 194.804 84.5754 195.63 83.5343C195.875 83.2281 196.151 83.1056 196.457 83.1975C198.264 83.5955 200.407 83.2281 202.979 82.1564C207.726 85.6472 215.105 84.4836 219.239 83.4424C219.637 89.3523 222.73 92.5675 225.884 95.2316V95.2009ZM194.926 90.7303C194.528 90.2403 189.965 87.6375 189.874 87.9131V87.8519C185.77 86.7189 183.321 82.4319 184.423 78.2981C185.954 73.9193 188.557 71.1328 191.405 70.8572C193.028 70.7041 194.742 71.1634 196.151 71.9595C197.59 72.7557 198.356 73.7968 198.999 75.2972C199.611 76.6446 200.07 78.2675 200.989 79.4617C201.326 79.8904 201.693 80.3191 201.908 80.809C202.03 81.1152 202.03 81.1459 201.755 81.299C201.54 81.4521 201.265 81.5439 201.02 81.6358C200.009 82.0339 198.876 82.3095 197.804 82.2482C196.825 82.2176 195.661 82.0033 194.957 82.6769C194.559 83.0444 194.406 83.5649 194.283 84.0855C193.793 86.2902 194.038 88.5868 194.865 90.669L194.926 90.7303ZM222.209 69.173C220.985 73.5518 218.872 78.0838 219.147 82.8606C212.656 84.606 207.205 83.9324 203.837 81.5133C210.206 78.6349 215.167 73.6131 220.831 69.663C221.26 69.418 221.75 69.0812 222.179 69.0505C222.179 69.0505 222.179 69.0199 222.179 69.173H222.209ZM219.484 82.7382C219.576 79.6454 220.403 76.6752 221.444 73.7662C221.72 72.6332 224.629 67.5501 221.566 68.4381C215.258 72.327 209.655 77.4713 202.918 80.6865H202.888C199.734 78.0838 200.683 74.2867 197.59 71.6227C195.508 69.8161 192.385 69.4486 189.812 70.4285C187.24 71.4084 185.189 73.5825 184.147 76.124C182.769 79.4617 183.106 83.6568 185.617 86.229C187.363 88.005 189.874 88.8011 192.048 90.0566C197.406 93.1187 199.305 99.0898 204.419 102.519C209.655 106.102 216.82 107.725 222.24 110.848C223.496 111.553 224.659 112.196 225.517 113.267C225.517 113.267 225.394 113.451 225.088 113.635C221.291 115.717 216.79 115.809 212.809 117.922C211.982 118.381 211.155 119.177 211.002 120.218C210.788 122.791 211.216 127.965 211.247 130.63C211.37 134.763 211.706 139.234 210.696 143.154C210.451 144.072 210.053 144.838 209.563 145.297C205.184 147.747 196.335 138.285 193.487 134.396C196.702 132.436 201.173 131.64 207.236 132.007C208.583 132.099 209.44 132.007 209.961 131.793C210.267 131.671 210.42 131.487 210.512 131.211C210.849 130.14 209.042 128.945 204.541 126.128C200.407 123.525 194.865 120.004 191.588 116.299C193.303 114.798 200.315 108.307 197.988 103.591C197.529 102.642 197.131 101.754 196.396 100.958C195.692 100.223 194.834 99.7022 193.885 99.3348C192.66 98.8755 191.374 98.6917 190.057 98.6305C189.414 98.5999 188.771 98.5693 188.159 98.6305H188.036C186.811 98.7836 185.617 99.2123 184.576 99.8553C184.484 99.9166 184.362 99.9778 184.27 100.039C183.076 100.866 182.065 101.999 181.392 103.316C180.993 104.05 180.657 104.847 180.534 105.673C180.442 106.347 180.442 107.051 180.35 107.725C180.259 108.399 180.105 109.042 179.952 109.685C179.769 110.45 179.524 111.216 179.279 111.951C178.452 114.064 177.043 115.686 175.727 117.524C172.695 121.78 171.44 126.649 171.225 131.854C171.042 136.417 172.665 145.175 169.449 149.002C169.204 149.278 169.143 149.247 168.99 149.278C168.561 149.247 167.673 148.543 167.03 147.808C164.397 144.96 162.774 141.347 159.804 138.652C159.161 138.132 158.211 137.734 157.323 138.101C152.853 139.142 132.459 150.411 131.816 142.266C131.51 135.988 135.276 129.833 138.92 124.842C142.901 126.649 145.81 131.089 148.26 137.948C148.964 139.969 149.546 140.734 150.25 140.673C150.342 140.673 150.434 140.643 150.526 140.612C151.444 140.214 151.842 138.009 152.608 133.202C153.343 128.609 154.384 122.362 156.374 117.922C156.68 117.983 157.14 118.136 157.844 118.534C160.049 119.759 162.284 120.463 164.458 120.586C165.897 120.678 167.03 120.525 167.98 120.096C168.378 119.912 168.745 119.667 169.082 119.392C171.715 117.126 172.511 115.288 170.613 109.715L170.154 109.868L170.613 109.685C170.613 109.685 170.031 108.429 169.97 108.337C169.725 107.909 169.419 107.511 169.112 107.113C168.5 106.378 167.735 105.735 166.908 105.245C165.132 104.204 162.988 103.836 160.967 104.173C160.171 104.295 159.344 104.54 158.609 104.908C157.936 105.245 157.109 105.612 156.344 105.428C155.884 105.306 155.486 105.092 155.057 104.847C147.616 100.866 138.43 103.162 131.173 106.378C130.806 106.561 130.407 106.714 130.009 106.898C129.734 106.99 129.274 107.174 128.693 107.388C126.029 108.399 118.955 111.124 117.455 109.715C117.149 109.44 117.118 108.95 117.332 108.246C118.006 106.194 119.231 104.357 120.394 102.581C121.619 100.713 122.905 98.753 123.61 96.5176C123.885 95.7215 123.579 94.711 122.967 94.1904C121.405 92.4144 119.69 90.6996 118.037 89.0461C114.699 85.6778 111.239 82.187 108.82 78.1756C107.809 76.4915 107.564 75.0829 108.085 74.0112C108.82 72.5413 111.024 71.5615 114.515 71.194C118.404 70.7959 122.568 71.194 126.855 72.2351C125.6 75.5422 122.905 78.8493 118.496 82.3401C116.812 83.6568 116.291 84.4529 116.567 85.096C117.026 86.1371 119.17 85.8003 124.406 84.9123C129.428 84.0549 136.225 82.9525 141.186 83.6874C141.278 84.2692 141.339 84.8816 141.278 85.4941C141.125 87.6069 141.094 90.3628 141.921 92.9962C142.472 94.711 143.36 97.0994 144.983 97.8956C147.157 98.9673 148.78 99.4879 150.893 98.5693C151.934 98.1099 153.067 97.3138 154.476 96.0277C158.211 92.9962 158.854 87.4844 155.823 83.718L155.425 84.0242L155.792 83.6874C153.894 81.5746 152.638 79.5229 151.689 77.1345C152.118 72.6944 150.924 68.1931 148.811 64.2736C145.626 58.4556 140.39 54.0768 136.93 48.4732C136.164 47.2177 135.276 45.8398 135.184 44.4312C135.184 44.0025 135.276 43.9412 135.491 43.7881C136.011 43.4819 137.144 43.4819 138.155 43.6044C142.197 44.0025 146.055 46.0235 150.25 45.6254C151.995 45.0436 152.363 42.8083 153.312 41.4303C155.486 37.9089 162.713 18.9545 168.133 24.6806C172.328 29.2431 173.675 35.8879 174.257 42.0121C172.113 41.0322 169.817 39.5931 167.398 37.6946C165.714 36.3778 164.856 36.0104 164.274 36.4391C163.386 37.1128 164.183 39.1337 166.234 44.0331C167.704 47.4933 169.48 51.8109 170.521 55.8222C168.5 58.2719 165.714 59.4355 162.223 59.1599C159.344 58.9456 155.884 62.5589 155.364 66.3253C154.874 69.8773 157.538 73.6743 162.498 76.4608C165.224 78.2369 168.469 78.4512 171.103 77.2876C172.511 76.6752 173.736 75.6647 174.655 74.2867C176.278 71.9595 177.993 70.2448 180.105 68.7749C186.934 68.6218 193.089 64.0287 197.008 58.6087C200.162 54.3218 202.979 49.6368 207.083 46.2685C207.358 46.0541 207.818 45.7785 208.154 45.656C208.461 45.5948 208.491 45.6254 208.522 45.6254C209.349 46.6053 209.379 49.3612 209.41 50.8922C209.624 53.9543 208.92 57.5064 210.298 60.446C211.247 61.8852 213.329 61.7933 214.83 62.3139C218.78 63.6 238.408 66.019 235.07 72.3882C231.824 77.8082 225.394 80.6559 219.545 82.7075L219.484 82.7382Z" fill="#20434D"/>
<path d="M94.2139 38.2764L94.2751 38.1539L94.367 38.2152C94.2139 38.5214 94.122 38.8582 94.0914 39.1951C94.0914 39.5319 94.0914 39.8381 94.1526 40.1443C94.2139 40.4199 94.3364 40.7261 94.4895 41.0323C94.7344 41.5223 95.0713 41.9816 95.5 42.4409L99.8176 47.279C100.154 47.6465 100.461 47.8914 100.767 48.0752L100.706 48.167L94.122 47.0341L98.1028 51.2904C98.6846 51.9334 99.052 52.6071 99.1745 53.342C99.2664 53.8932 99.1745 54.3831 98.9295 54.8424C98.8377 54.9955 98.7152 55.1486 98.5927 55.3324L98.5008 55.2711C98.5008 55.2711 98.6539 55.0874 98.7152 54.9649C98.7764 54.8424 98.8377 54.6587 98.8683 54.4137C98.8989 54.1688 98.8683 53.8932 98.8071 53.5563C98.6233 52.9133 98.3171 52.3009 97.8272 51.7497L91.2436 50.6167C90.9987 50.6167 90.7843 50.6167 90.6006 50.7392C90.4169 50.8311 90.2638 50.9842 90.1719 51.1373V51.2291L90.0188 51.1679L91.213 49.0244L91.3049 49.0857L91.2436 49.1775C91.2436 49.1775 91.1518 49.4225 91.213 49.545C91.2743 49.6675 91.3355 49.7287 91.3967 49.79C91.458 49.8206 91.5499 49.8512 91.6111 49.8818L97.1229 51.0454L92.6216 46.146L92.6828 46.0542L99.0826 47.1565L95.1325 43.0533C94.6732 42.5634 94.3058 42.0428 94.0608 41.4304C93.5708 40.328 93.6321 39.2563 94.1833 38.2764H94.2139Z" fill="#20434D"/>
<path d="M105.39 40.9097C105.513 40.7566 105.543 40.5729 105.513 40.3892C105.513 40.2055 105.39 40.0523 105.237 39.9299L102.941 38.2457L100.307 41.8896L102.604 43.5738C102.757 43.6963 102.941 43.7269 103.124 43.6963C103.308 43.6656 103.461 43.5738 103.584 43.4207L103.676 43.2982L103.767 43.3594L102.359 45.3192L102.267 45.2579L102.359 45.1354C102.359 45.1354 102.512 44.7986 102.481 44.6149C102.451 44.4312 102.359 44.2781 102.206 44.1556L97.2451 40.5729C97.092 40.481 96.9083 40.4198 96.7246 40.4504C96.5409 40.481 96.3878 40.5729 96.2653 40.726L96.1734 40.8485L96.0815 40.7873L97.4901 38.8275L97.582 38.8887L97.4901 39.0112C97.3676 39.1643 97.337 39.3481 97.3676 39.5318C97.3982 39.7155 97.4901 39.8686 97.6432 39.9911L100.032 41.7059L102.665 38.062L100.277 36.3472C100.062 36.1941 99.8173 36.1635 99.5723 36.286C99.4499 36.3472 99.358 36.4084 99.2968 36.5309L99.2049 36.6534L99.113 36.5922L100.522 34.6324L100.613 34.6937L100.522 34.8161C100.399 34.9692 100.368 35.153 100.399 35.3367C100.399 35.5204 100.522 35.6735 100.675 35.796L105.635 39.3787C105.788 39.5012 105.972 39.5318 106.156 39.5012C106.34 39.5012 106.493 39.3787 106.615 39.2256L106.707 39.1031L106.799 39.1643L105.39 41.1241L105.298 41.0628L105.39 40.9404V40.9097Z" fill="#20434D"/>
<path d="M105.329 40.9404C105.329 40.9404 105.482 40.6342 105.482 40.4199C105.482 40.2055 105.391 40.0831 105.237 39.93L100.399 36.0717C100.399 36.0717 100.093 35.9186 99.9094 35.9492C99.7257 35.9798 99.5726 36.0717 99.4501 36.2248L99.3582 36.3167L99.2664 36.2554L101.287 33.7139C101.44 33.5301 101.563 33.3158 101.685 33.1015C101.808 32.8871 101.9 32.7034 101.93 32.5809L103.002 33.4383L102.941 33.5301L102.788 33.4077C102.788 33.4077 102.482 33.2546 102.328 33.2546C102.145 33.2546 102.022 33.3464 101.9 33.4689L100.491 35.2143L103.155 37.3272L104.319 35.8573C104.319 35.8573 104.441 35.6124 104.411 35.4593C104.411 35.3062 104.319 35.1837 104.196 35.0918L104.074 35L104.135 34.9081L105.482 35.9798L105.421 36.0717L105.299 35.9798C105.299 35.9798 105.054 35.8573 104.901 35.8573C104.748 35.8573 104.625 35.9186 104.533 36.0411L103.37 37.5109L105.942 39.5625L106.922 38.3377C107.258 37.909 107.412 37.5109 107.412 37.1434C107.412 36.776 107.258 36.3473 107.013 35.9186L107.075 35.8267L108.085 37.4496L105.237 41.0323L105.146 40.9711L105.237 40.8486L105.329 40.9404Z" fill="#20434D"/>
<path d="M105.36 29.6412L104.87 30.1617L109.647 34.663C109.647 34.663 109.953 34.8468 110.136 34.8468C110.32 34.8468 110.504 34.7549 110.626 34.6324L110.718 34.5405L110.81 34.6018L109.157 36.3778L109.065 36.3166L109.157 36.2247C109.157 36.2247 109.34 35.9185 109.34 35.7348C109.34 35.551 109.279 35.3673 109.126 35.2448L104.655 31.0497C104.655 31.0497 104.349 30.866 104.165 30.866C103.982 30.866 103.798 30.9579 103.675 31.0804L103.584 31.1722L103.492 31.111L105.543 28.9369C106.003 28.447 106.493 28.202 107.013 28.1714C107.534 28.1407 108.024 28.3245 108.452 28.7532C108.881 29.1512 109.126 29.6412 109.187 30.1924C109.248 30.7435 109.095 31.2335 108.759 31.6009C108.881 31.5703 109.034 31.5397 109.248 31.5091C109.463 31.4784 109.677 31.5091 109.861 31.5091C110.963 31.6622 111.637 31.754 111.912 31.754C112.188 31.754 112.402 31.754 112.494 31.754C112.617 31.754 112.709 31.754 112.831 31.7234C112.954 31.7234 113.045 31.6622 113.168 31.6315C113.382 31.5397 113.597 31.4172 113.75 31.2335L113.842 31.2947L113.413 31.7234C113.199 31.9684 112.954 32.1215 112.678 32.244C112.402 32.3665 112.188 32.4277 112.004 32.4583C111.821 32.4583 111.668 32.4583 111.514 32.4583C111.361 32.4583 110.902 32.3971 110.106 32.2746C109.34 32.1521 108.881 32.0909 108.759 32.0909C108.636 32.0909 108.514 32.0909 108.391 32.0909C108.054 32.0909 107.809 32.1827 107.626 32.3358L107.534 32.2746C107.534 32.2746 107.626 32.1827 107.687 32.1215C107.748 32.0602 107.84 31.9684 107.932 31.8459C108.544 31.1722 108.667 30.4986 108.269 29.7943C108.177 29.6718 108.115 29.5493 108.024 29.4574C107.932 29.3656 107.871 29.3043 107.84 29.3043C107.472 28.9675 107.105 28.7838 106.707 28.7838C106.309 28.7838 105.972 28.8756 105.696 29.1512C105.574 29.2737 105.421 29.4268 105.237 29.6412H105.36Z" fill="#20434D"/>
<path d="M113.996 31.1417C113.996 31.1417 114.21 30.8661 114.21 30.6517C114.21 30.468 114.149 30.2843 114.026 30.1312L109.862 25.5686C109.862 25.5686 109.586 25.3849 109.402 25.3849C109.219 25.3849 109.066 25.4462 108.912 25.5993L108.821 25.6911L108.729 25.6299L111.117 23.4558C111.301 23.3027 111.454 23.119 111.638 22.9046C111.791 22.6903 111.913 22.5372 111.975 22.4147L112.924 23.4252L112.832 23.4864L112.709 23.3333C112.709 23.3333 112.434 23.119 112.281 23.119C112.097 23.119 111.944 23.1496 111.821 23.2721L110.168 24.8031L112.465 27.314L113.842 26.0586C113.842 26.0586 113.996 25.8136 113.996 25.6911C113.996 25.538 113.965 25.4155 113.842 25.2931L113.751 25.1706L113.842 25.1093L115.006 26.3954L114.914 26.4567L114.792 26.3342C114.792 26.3342 114.577 26.1811 114.424 26.1504C114.271 26.1198 114.149 26.1811 114.026 26.2729L112.648 27.5284L114.884 29.9475L116.047 28.8757C116.445 28.5083 116.66 28.1408 116.721 27.7734C116.782 27.4059 116.721 26.9772 116.507 26.4873L116.598 26.426L117.333 28.1714L113.965 31.2642L113.904 31.1723L113.996 31.0804V31.1417Z" fill="#20434D"/>
<path d="M120.762 25.2623C120.915 25.1398 121.007 24.9867 121.038 24.803C121.038 24.6193 121.038 24.4356 120.915 24.2824L117.272 19.2912C117.272 19.2912 117.027 19.0769 116.843 19.0462C116.659 19.0462 116.475 19.0769 116.322 19.1994L116.23 19.2912L116.169 19.1994L117.976 17.8826C118.16 17.7602 118.343 17.5764 118.527 17.3927C118.711 17.209 118.833 17.0559 118.894 16.964L119.721 18.097L119.629 18.1582L119.507 18.0051C119.507 18.0051 119.262 17.7908 119.109 17.7602C118.925 17.7602 118.772 17.7602 118.65 17.852L117.639 18.5869L119.66 21.3428L121.344 20.118C121.344 20.118 121.528 19.9036 121.559 19.7505C121.589 19.5974 121.559 19.4749 121.467 19.3525L121.375 19.23L121.467 19.1687L122.477 20.5773L122.385 20.6385L122.293 20.5161C122.293 20.5161 122.079 20.3323 121.957 20.3017C121.803 20.3017 121.681 20.3017 121.559 20.3936L119.844 21.649L121.773 24.3131L123.671 22.9351C124.1 22.6289 124.376 22.2615 124.468 21.894C124.559 21.5266 124.529 21.0979 124.406 20.6079L124.498 20.5467L125.049 22.3533L120.732 25.5073L120.67 25.4154L120.793 25.3236L120.762 25.2623Z" fill="#20434D"/>
<path d="M125.784 12.7078L127.683 11.5442L127.744 11.6361L127.652 11.6973C127.499 11.7892 127.376 11.9423 127.284 12.126C127.193 12.3097 127.162 12.5241 127.193 12.7691L128.05 19.2301C128.142 19.8731 128.203 20.2712 128.295 20.3937L128.203 20.4549L121.865 16.0761C121.65 15.923 121.436 15.8618 121.222 15.8618C121.007 15.8618 120.823 15.8924 120.67 16.0149L120.609 16.0761L120.548 15.9843L122.661 14.6676L122.722 14.7594L122.63 14.8207C122.63 14.8207 122.416 15.0044 122.416 15.1269C122.416 15.2494 122.416 15.3412 122.477 15.4331C122.508 15.4943 122.569 15.5556 122.661 15.6168L127.652 19.322L126.672 13.1365C126.672 13.1365 126.611 12.9528 126.58 12.8915C126.55 12.8303 126.458 12.7691 126.335 12.7078C126.213 12.6772 126.09 12.7078 125.968 12.7691L125.876 12.8303L125.815 12.7384L125.784 12.7078Z" fill="#20434D"/>
<path d="M132.184 17.7909C132.368 17.699 132.46 17.5765 132.521 17.3928C132.582 17.2091 132.582 17.0254 132.521 16.8722L129.735 11.3605C129.643 11.2073 129.52 11.1155 129.337 11.0542C129.153 11.0236 128.969 11.0542 128.816 11.1155L128.694 11.1767L128.632 11.0849L131.511 9.61505C131.725 9.52319 131.939 9.37008 132.154 9.21698C132.368 9.06387 132.521 8.94139 132.613 8.84953L133.225 10.105L133.134 10.1662L133.042 9.98251C132.95 9.8294 132.827 9.70692 132.674 9.67629C132.521 9.64567 132.337 9.61505 132.184 9.67629L130.163 10.6868L131.694 13.7183L133.348 12.8915C133.348 12.8915 133.562 12.7078 133.593 12.5853C133.654 12.4628 133.624 12.3097 133.562 12.1872L133.501 12.0647L133.593 12.0035L134.389 13.5652L134.297 13.6264L134.236 13.4733C134.236 13.4733 134.083 13.259 133.93 13.1977C133.777 13.1365 133.654 13.1671 133.532 13.1977L131.848 14.0551L133.317 16.9947L134.726 16.2904C135.216 16.0455 135.522 15.7393 135.675 15.4024C135.828 15.0656 135.859 14.6369 135.828 14.1164L135.92 14.0551L136.165 15.923L132.092 17.9746L132.031 17.8827L132.154 17.8215L132.184 17.7909Z" fill="#20434D"/>
<path d="M136.9 7.53278L136.257 7.80837L138.737 13.902C138.798 14.0857 138.921 14.2082 139.105 14.2694C139.288 14.3307 139.472 14.3307 139.656 14.2694L139.778 14.2082L139.84 14.3L137.604 15.2187V15.1268L137.696 15.0656C137.88 15.0043 138.002 14.8818 138.064 14.6981C138.125 14.5144 138.155 14.3613 138.064 14.1776L135.767 8.51266C135.675 8.32893 135.553 8.20645 135.369 8.1452C135.185 8.08396 135.001 8.05334 134.848 8.1452L134.726 8.20645V8.11458L137.451 6.9816C138.064 6.73663 138.615 6.70601 139.135 6.88974C139.625 7.10409 139.993 7.47154 140.207 8.02272C140.421 8.5739 140.452 9.12508 140.268 9.64564C140.085 10.1662 139.778 10.5336 139.288 10.748C139.411 10.748 139.564 10.8092 139.778 10.8705C139.962 10.9623 140.146 11.0542 140.329 11.1461C141.248 11.7585 141.861 12.0953 142.106 12.2178C142.35 12.3403 142.534 12.4322 142.657 12.4628C142.749 12.4934 142.871 12.5546 142.994 12.5853C143.116 12.6159 143.208 12.6465 143.33 12.6465C143.575 12.6465 143.79 12.6465 144.035 12.524V12.6159L143.514 12.8609C143.208 12.9833 142.932 13.0446 142.626 13.0446C142.32 13.0446 142.106 13.014 141.922 12.9527C141.738 12.8915 141.585 12.8302 141.462 12.769C141.34 12.7077 140.942 12.4628 140.268 12.0341C139.595 11.6054 139.227 11.3604 139.135 11.2992C139.043 11.2379 138.921 11.1767 138.829 11.1461C138.523 10.993 138.247 10.9623 138.033 11.0542V10.9623C138.033 10.9623 138.125 10.9317 138.217 10.8705C138.308 10.8092 138.4 10.7786 138.553 10.7174C139.38 10.3499 139.778 9.79874 139.717 9.00259C139.717 8.84949 139.686 8.727 139.625 8.60452L139.533 8.35955C139.319 7.90023 139.074 7.59402 138.737 7.4103C138.4 7.22657 138.033 7.19595 137.635 7.31843C137.482 7.37968 137.267 7.47154 137.022 7.5634L136.9 7.53278Z" fill="#20434D"/>
<path d="M147.77 3.49082L147.617 3.55206C147.403 3.6133 147.219 3.73579 147.066 3.91951C146.913 4.10324 146.821 4.28697 146.729 4.50131L145.718 8.51268L146.515 11.0236C146.576 11.2073 146.698 11.3298 146.851 11.4217C147.035 11.5135 147.188 11.5135 147.403 11.4523H147.525V11.5135L145.259 12.2484V12.1566H145.351C145.535 12.0647 145.657 11.9422 145.749 11.7891C145.841 11.636 145.872 11.4523 145.81 11.2686L145.014 8.72702L141.952 6.00175C141.799 5.87926 141.585 5.75678 141.37 5.72616C141.156 5.69554 140.911 5.66492 140.697 5.72616L140.543 5.7874V5.69554L143.085 4.86877V4.96063H142.993C142.84 5.05249 142.748 5.17498 142.687 5.32808C142.687 5.41995 142.687 5.51181 142.687 5.57305C142.687 5.63429 142.748 5.72616 142.809 5.7874L145.32 8.23709L146.055 4.74628C146.055 4.74628 146.055 4.59318 146.055 4.53194C146.055 4.47069 145.994 4.40945 145.902 4.34821C145.78 4.22572 145.627 4.1951 145.473 4.25635H145.351V4.1951L147.648 3.4602V3.55206L147.77 3.49082Z" fill="#20434D"/>
<path d="M154.721 1.68414C155.364 1.56165 155.915 1.6229 156.374 1.83724C157.017 2.14345 157.415 2.72525 157.599 3.58264C157.722 4.19507 157.66 4.77687 157.385 5.2668C157.109 5.81798 156.619 6.15482 155.946 6.2773C155.578 6.33854 155.241 6.30792 154.935 6.21606C154.629 6.12419 154.384 5.8486 154.261 5.45053L154.353 5.38929C154.506 5.6955 154.721 5.87923 155.027 5.94047C155.241 6.00171 155.425 6.00171 155.578 5.94047C156.16 5.81798 156.558 5.51177 156.742 4.99121C156.864 4.62376 156.895 4.19507 156.803 3.73575C156.65 2.97022 156.344 2.48029 155.854 2.23532C155.486 2.02097 155.058 1.99035 154.568 2.08221C154.445 2.08221 154.353 2.11283 154.261 2.14345C154.17 2.17408 153.833 2.29656 153.22 2.54153L154.445 8.97195C154.476 9.15568 154.598 9.30879 154.751 9.40065C154.904 9.49251 155.088 9.52313 155.272 9.49251H155.425V9.58438L153.067 10.0437V9.92121H153.19C153.373 9.85997 153.526 9.7681 153.618 9.615C153.71 9.46189 153.771 9.27817 153.741 9.09444L152.608 3.24581C152.577 3.06209 152.485 2.90898 152.363 2.84774C152.24 2.7865 152.087 2.72525 151.904 2.7865C151.873 2.7865 151.842 2.7865 151.812 2.7865H151.689V2.72525C152.026 2.60277 152.516 2.44967 153.128 2.23532C153.741 2.02097 154.108 1.86786 154.261 1.83724C154.414 1.776 154.568 1.74538 154.751 1.71476L154.721 1.68414Z" fill="#20434D"/>
<path d="M159.682 8.69645C159.865 8.69645 160.018 8.57397 160.141 8.45148C160.263 8.29838 160.325 8.14527 160.294 7.93092L159.59 1.80671C159.59 1.62298 159.467 1.5005 159.345 1.37801C159.192 1.28615 159.008 1.22491 158.824 1.25553H158.702V1.16367L161.886 0.796213C162.101 0.796213 162.346 0.734971 162.621 0.643108C162.897 0.551244 163.08 0.520623 163.172 0.459381L163.325 1.83733H163.203V1.6536C163.172 1.46988 163.08 1.34739 162.958 1.22491C162.836 1.10242 162.682 1.0718 162.499 1.0718L160.263 1.31677L160.661 4.71571L162.499 4.50136C162.499 4.50136 162.774 4.4095 162.866 4.28702C162.958 4.16453 162.989 4.04205 162.989 3.88894V3.73584H163.08L163.264 5.45062H163.142V5.29751C163.142 5.29751 163.05 5.02192 162.927 4.93006C162.805 4.8382 162.682 4.80757 162.529 4.80757L160.661 5.02192L161.029 8.29838L162.591 8.11465C163.142 8.05341 163.54 7.86968 163.785 7.62471C164.03 7.34912 164.244 6.98167 164.367 6.46111H164.489L164.06 8.29838L159.528 8.81894V8.69645H159.651H159.682Z" fill="#20434D"/>
<path d="M171.318 1.22484C171.318 1.04112 171.257 0.888011 171.103 0.765527C170.981 0.643043 170.828 0.581801 170.644 0.581801L168.562 0.643043L168.807 7.25719C168.807 7.44092 168.899 7.59403 169.052 7.74713C169.205 7.86962 169.358 7.93086 169.542 7.93086H169.695V8.02272L167.276 8.11459V7.9921H167.429C167.613 7.9921 167.766 7.90024 167.919 7.77775C168.041 7.65527 168.103 7.47154 168.103 7.28782L167.858 0.673664L165.775 0.734906C165.592 0.734906 165.439 0.826769 165.347 0.949253C165.224 1.07174 165.163 1.22484 165.194 1.40857V1.5923H165.102L165.041 0.214348C165.041 0.214348 165.347 0.27559 165.622 0.336832C165.898 0.367453 166.143 0.398074 166.388 0.367453L170.124 0.244969C170.491 0.244969 170.767 0.183726 171.012 0.122484C171.257 0.0612422 171.379 0 171.44 0L171.502 1.37795H171.379V1.19422L171.318 1.22484Z" fill="#20434D"/>
<path d="M178.85 8.11459H178.942V8.23707L176.462 8.14521V8.02273H176.554C176.707 8.02273 176.829 7.99211 176.921 7.90024C177.013 7.80838 177.043 7.71652 177.043 7.62465C177.043 7.53279 177.043 7.44093 177.013 7.34906L176.37 5.45056L173.4 5.32807L172.573 7.19596C172.573 7.19596 172.512 7.37968 172.512 7.44093C172.512 7.50217 172.542 7.62465 172.603 7.71652C172.665 7.80838 172.787 7.86962 172.94 7.86962H173.032V7.99211L170.827 7.90024V7.77776H170.919C171.103 7.77776 171.287 7.74714 171.47 7.62465C171.654 7.50217 171.807 7.34906 171.93 7.13472L174.655 1.31671C174.961 0.73491 175.114 0.367458 175.114 0.183731H175.206L177.87 7.37968C177.962 7.62465 178.085 7.77776 178.268 7.90024C178.452 8.02273 178.636 8.08397 178.819 8.11459H178.85ZM173.553 4.99124L176.247 5.11372L175.053 1.53106L173.522 5.02186L173.553 4.99124Z" fill="#20434D"/>
<path d="M179.493 8.23714C179.677 8.23714 179.861 8.23714 180.014 8.08403C180.167 7.96155 180.259 7.80844 180.289 7.62472L181.024 1.56174C181.024 1.37802 180.994 1.19429 180.871 1.04119C180.749 0.888081 180.596 0.796218 180.412 0.765596H180.259V0.643112L182.678 0.949323V1.07181H182.525C182.249 1.01057 182.035 1.10243 181.882 1.31678C181.79 1.40864 181.759 1.53112 181.729 1.65361L180.933 8.1759L182.494 8.35962C183.045 8.42087 183.474 8.35962 183.78 8.14528C184.086 7.93093 184.362 7.62472 184.638 7.1654H184.76L183.903 8.88018L179.371 8.329V8.20652H179.524L179.493 8.23714Z" fill="#20434D"/>
<path d="M188.037 3.95009C187.884 3.64388 187.823 3.33767 187.884 3.0927C187.945 2.81711 188.068 2.63338 188.221 2.44966C188.374 2.29655 188.619 2.17407 188.925 2.11283C189.231 2.05158 189.538 2.05158 189.905 2.11283L194.314 3.15394C194.529 3.21518 194.774 3.24581 195.049 3.27643C195.325 3.27643 195.539 3.27643 195.631 3.27643L195.325 4.62375H195.233V4.40941C195.325 4.22568 195.294 4.07258 195.203 3.91947C195.111 3.76636 194.988 3.6745 194.835 3.61326L192.783 3.12332L191.252 9.55375C191.191 9.79872 191.252 10.0437 191.467 10.2274C191.559 10.3193 191.681 10.3499 191.804 10.3805H191.957V10.5336L189.568 9.98244V9.85996H189.721C189.905 9.95182 190.089 9.9212 190.242 9.82934C190.395 9.73747 190.517 9.58437 190.548 9.43126L192.079 3.00084L189.844 2.48028C189.262 2.35779 188.803 2.41904 188.466 2.72525C188.282 2.87835 188.16 3.06208 188.129 3.27643C188.068 3.49077 188.098 3.70512 188.129 3.95009H188.037Z" fill="#20434D"/>
<path d="M194.621 11.1154C194.805 11.1767 194.988 11.146 195.141 11.0848C195.325 10.9929 195.417 10.8705 195.509 10.6867L197.407 4.80748C197.469 4.65438 197.438 4.47065 197.346 4.31754C197.254 4.16444 197.101 4.04195 196.917 3.98071H196.795V3.82761L199.888 4.80748C200.102 4.86872 200.347 4.92997 200.623 4.96059C200.898 4.99121 201.082 5.02183 201.204 5.02183L200.776 6.33853H200.684L200.745 6.12419C200.806 5.97108 200.776 5.78736 200.714 5.63425C200.623 5.48114 200.531 5.35866 200.347 5.32804L198.203 4.65438L197.162 7.90021L198.938 8.48201C198.938 8.48201 199.214 8.48201 199.336 8.45139C199.459 8.39015 199.551 8.26766 199.612 8.14518L199.673 7.99207H199.765L199.245 9.67623H199.153L199.214 9.49251C199.214 9.49251 199.245 9.21692 199.214 9.09443C199.183 8.97195 199.061 8.88008 198.908 8.81884L197.132 8.23704L196.121 11.3604L197.622 11.8503C198.142 12.0034 198.571 12.0341 198.908 11.8809C199.245 11.7278 199.581 11.4829 199.918 11.0848H200.01L198.846 12.6159L194.498 11.2073V11.1154H194.682H194.621Z" fill="#20434D"/>
<path d="M200.469 13.0753C200.653 13.1365 200.837 13.1365 200.99 13.0753C201.173 13.014 201.296 12.8609 201.357 12.7078L203.654 7.04291C203.715 6.85918 203.715 6.67546 203.654 6.52235C203.592 6.36925 203.439 6.21614 203.286 6.1549L203.164 6.09366V6.00179L205.43 6.92043V7.01229L205.246 6.95105C205.001 6.85918 204.756 6.8898 204.542 7.04291C204.45 7.13477 204.358 7.22664 204.327 7.3185L201.847 13.4121L203.317 13.9939C203.807 14.2082 204.266 14.2389 204.603 14.1164C204.97 13.9939 205.307 13.7489 205.675 13.3815H205.767L204.511 14.8513L200.285 13.1365V13.0446L200.469 13.1059V13.0753Z" fill="#20434D"/>
<path d="M205.95 15.3412C206.134 15.4331 206.287 15.4331 206.471 15.3719C206.655 15.3106 206.777 15.1881 206.869 15.035L209.564 9.55385C209.655 9.37013 209.655 9.1864 209.564 9.0333C209.502 8.84957 209.38 8.72709 209.227 8.63522L209.104 8.57398L209.166 8.48212L211.34 9.55385L211.278 9.64572L211.156 9.58448C210.911 9.46199 210.697 9.49261 210.452 9.6151C210.329 9.67634 210.268 9.7682 210.207 9.89069L207.298 15.8006L208.706 16.5048C209.196 16.7498 209.625 16.811 209.992 16.7192C210.36 16.6273 210.727 16.413 211.125 16.0761L211.217 16.1374L209.87 17.4541L205.767 15.4331L205.828 15.3412L205.95 15.4025V15.3412Z" fill="#20434D"/>
<path d="M211.401 17.699C211.401 17.699 211.523 17.4235 211.676 17.1785C211.829 16.9335 212.013 16.6885 212.289 16.4436L212.381 16.5048C212.381 16.5048 212.289 16.6273 212.258 16.7192C212.044 17.1172 211.952 17.4847 212.044 17.8828C212.136 18.2808 212.381 18.5871 212.748 18.8014C213.146 19.0464 213.544 19.1076 213.942 19.0157C214.34 18.9239 214.646 18.6789 214.861 18.3421C215.075 17.9746 215.106 17.6072 215.014 17.2397L214.157 14.4838C214.003 13.9633 214.034 13.4733 214.31 13.0446C214.555 12.5853 214.953 12.2791 215.443 12.1566C215.933 12.0341 216.423 12.0954 216.943 12.371C217.188 12.5241 217.433 12.7078 217.709 12.9528L218.076 13.1671L217.402 14.3307L217.311 14.2695C217.494 13.9633 217.525 13.6571 217.402 13.3815C217.311 13.0753 217.096 12.8303 216.759 12.6466C216.422 12.4628 216.086 12.4016 215.749 12.4935C215.412 12.5853 215.136 12.7997 214.953 13.1059C214.769 13.4427 214.738 13.7795 214.861 14.1776L215.749 16.9948C215.902 17.4847 215.81 17.9746 215.534 18.4646C215.228 18.9851 214.83 19.2913 214.31 19.4444C213.789 19.5975 213.269 19.5057 212.717 19.1995C212.442 19.0464 212.166 18.832 211.891 18.5564C211.615 18.2808 211.462 18.0053 211.401 17.7297V17.699Z" fill="#20434D"/>
<path d="M223.19 15.9841C223.68 16.1066 224.109 16.2903 224.476 16.5659C224.782 16.7803 224.997 17.1171 225.15 17.5764C225.242 17.8214 225.242 18.1888 225.211 18.7094C225.18 19.0462 225.058 19.5974 224.813 20.3936L223.649 24.2518C223.404 25.1092 223.251 25.8441 223.19 26.4565C223.159 27.0383 223.19 27.5283 223.221 27.8957C223.282 28.2632 223.404 28.5694 223.557 28.8144C223.741 29.0593 223.894 29.2431 224.047 29.3655C224.201 29.488 224.354 29.5493 224.476 29.6105L224.415 29.7024C224.047 29.5799 223.741 29.4268 223.466 29.2431C223.19 29.0593 222.976 28.7837 222.792 28.4469C222.608 28.1101 222.516 27.712 222.455 27.3139C222.333 26.4259 222.455 25.3236 222.884 24.0069L223.282 22.7514L220.863 20.9754L219.087 22.1083C219.087 22.1083 218.934 22.2308 218.872 22.2921C218.811 22.3533 218.811 22.4452 218.811 22.5983C218.811 22.7514 218.872 22.8433 219.026 22.9351L219.087 22.9964L219.026 23.0882L217.25 21.7715L217.311 21.6797L217.403 21.7409C217.403 21.7409 217.709 21.894 217.923 21.9246C218.138 21.9552 218.321 21.894 218.536 21.8021L224.629 18.1582C224.629 17.4539 224.415 16.964 223.956 16.5966C223.741 16.4434 223.496 16.321 223.159 16.2291V16.1066L223.19 15.9841ZM221.23 20.6998L223.466 22.3533L224.292 19.7811C224.445 19.2912 224.537 18.8931 224.599 18.5869L221.23 20.7304V20.6998Z" fill="#20434D"/>
<path d="M228.487 26.7629C227.875 26.8547 227.354 27.1303 226.956 27.559C226.497 28.0796 226.344 28.6614 226.497 29.335C226.589 29.7331 226.803 30.0699 227.109 30.3762C227.415 30.6824 227.752 30.8661 228.089 30.958C228.732 31.1417 229.344 30.958 229.896 30.4986C229.926 30.468 229.987 30.4374 230.018 30.3762C230.202 30.1924 230.355 29.9168 230.447 29.58C230.539 29.2432 230.569 28.8757 230.508 28.447L230.11 25.9361C230.018 25.3849 230.171 24.9256 230.539 24.5275C230.906 24.1295 231.335 23.9151 231.855 23.8845C232.376 23.8539 232.835 24.0376 233.264 24.4357C233.478 24.65 233.693 24.895 233.907 25.1706L234.244 25.4768L233.325 26.4873L233.233 26.426C233.478 26.1505 233.57 25.8749 233.509 25.5687C233.478 25.2624 233.295 24.9562 233.05 24.7113C232.774 24.4663 232.468 24.3438 232.131 24.3438C231.794 24.3438 231.488 24.4969 231.212 24.7725C230.937 25.0481 230.845 25.4155 230.906 25.8136L231.304 28.3858C231.457 29.3963 231.243 30.2537 230.631 30.8967C230.171 31.3867 229.589 31.6316 228.855 31.6316C228.242 31.6316 227.63 31.356 227.078 30.8355C226.742 30.5293 226.497 30.1618 226.344 29.7944C226.068 29.0901 226.129 28.3858 226.558 27.7427C226.619 27.6509 226.711 27.5284 226.834 27.4059C226.956 27.2834 227.17 27.1303 227.446 26.9772C227.722 26.8241 228.089 26.7323 228.518 26.7016V26.8241L228.487 26.7629Z" fill="#20434D"/>
<path d="M239.266 32.244C239.266 32.244 239.45 31.9685 239.48 31.7847C239.511 31.601 239.45 31.4479 239.327 31.3254L237.919 29.7944L233.08 34.265C233.08 34.265 232.866 34.5712 232.866 34.755C232.866 34.9387 232.927 35.1224 233.05 35.2449L233.142 35.3674L233.05 35.4286L231.396 33.6526L231.488 33.5914L231.58 33.6832C231.58 33.6832 231.856 33.8976 232.07 33.8976C232.254 33.8976 232.437 33.867 232.56 33.7445L237.429 29.2432L236.02 27.7121C236.02 27.7121 235.744 27.5284 235.561 27.5284C235.377 27.5284 235.224 27.5896 235.101 27.7121L234.979 27.8346L234.887 27.7734L235.898 26.8241C235.898 26.8241 236.051 27.0997 236.204 27.3447C236.357 27.559 236.51 27.7734 236.663 27.9265L239.205 30.6517C239.45 30.9273 239.664 31.1111 239.878 31.2642C240.093 31.3867 240.215 31.4785 240.246 31.5091L239.235 32.4584L239.174 32.3665L239.296 32.244H239.266Z" fill="#20434D"/>
<path d="M240.644 33.8362C241.715 34.02 242.634 34.6018 243.4 35.5816C244.165 36.5615 244.502 37.6026 244.379 38.6744C244.257 39.7461 243.736 40.6647 242.787 41.369C241.838 42.1039 240.827 42.3795 239.756 42.1958C238.684 42.0121 237.765 41.4303 237 40.4504C236.234 39.4399 235.897 38.4294 236.02 37.3577C236.112 36.2859 236.663 35.3673 237.612 34.663C238.561 33.9281 239.572 33.6525 240.644 33.8362ZM236.602 37.6945C236.449 38.5825 236.663 39.4399 237.306 40.2667C237.918 41.0628 238.684 41.5221 239.603 41.5834C240.521 41.6752 241.409 41.369 242.297 40.6954C243.185 40.0217 243.675 39.2256 243.859 38.3375C244.012 37.4495 243.798 36.5921 243.155 35.7654C242.512 34.9386 241.777 34.5099 240.858 34.4487C239.939 34.3568 239.051 34.663 238.163 35.3367C237.275 36.0103 236.785 36.8065 236.602 37.6945Z" fill="#20434D"/>
<path d="M247.564 42.3797L247.197 41.7672L241.624 45.258C241.471 45.3499 241.348 45.503 241.318 45.6867C241.287 45.8705 241.318 46.0542 241.409 46.2073L241.471 46.3298L241.379 46.391L240.093 44.3394L240.185 44.2782L240.246 44.4006C240.338 44.5537 240.491 44.6762 240.675 44.7069C240.858 44.7375 241.042 44.7069 241.195 44.6456L246.37 41.3998C246.523 41.2773 246.615 41.1548 246.676 40.9711C246.707 40.7874 246.676 40.6036 246.584 40.4505L246.523 40.328L246.615 40.2668L248.177 42.7777C248.544 43.3595 248.667 43.8801 248.544 44.4006C248.422 44.9212 248.115 45.3499 247.626 45.6561C247.136 45.9623 246.584 46.0848 246.033 45.9929C245.482 45.9011 245.053 45.6561 244.778 45.1968C244.778 45.3193 244.778 45.4724 244.717 45.6867C244.655 45.9011 244.594 46.0848 244.533 46.2685C244.104 47.279 243.859 47.9221 243.767 48.1977C243.706 48.4732 243.645 48.657 243.614 48.7795C243.584 48.9019 243.584 48.9938 243.553 49.1163C243.522 49.2388 243.553 49.3613 243.553 49.4531C243.553 49.6981 243.645 49.9124 243.798 50.1268L243.706 50.188L243.4 49.6675C243.247 49.3919 243.124 49.1163 243.094 48.8407C243.063 48.5651 243.032 48.3201 243.094 48.1364C243.124 47.9527 243.155 47.7996 243.216 47.6465C243.247 47.4934 243.43 47.0647 243.737 46.3604C244.043 45.6255 244.227 45.2274 244.257 45.1049C244.288 44.9824 244.318 44.8906 244.38 44.7681C244.472 44.4313 244.441 44.1557 244.318 43.972L244.41 43.9107C244.41 43.9107 244.472 44.0332 244.533 44.1251C244.594 44.2169 244.655 44.3088 244.717 44.4313C245.207 45.1968 245.85 45.4724 246.584 45.2887C246.738 45.258 246.86 45.1968 246.983 45.1355C247.105 45.0743 247.166 45.0131 247.197 45.0131C247.595 44.7375 247.871 44.4313 247.993 44.0638C248.116 43.6964 248.085 43.3289 247.871 42.9615C247.779 42.8083 247.656 42.6246 247.534 42.4103L247.564 42.3797Z" fill="#20434D"/>
<path d="M253.413 52.4539L253.351 52.3314C253.26 52.1477 253.106 51.964 252.892 51.8721C252.678 51.7803 252.494 51.6884 252.249 51.6578L248.115 51.3516L245.788 52.5764C245.604 52.6683 245.512 52.7908 245.451 52.9745C245.39 53.1582 245.421 53.3419 245.512 53.5257L245.574 53.6481L245.482 53.7094L244.379 51.5659L244.471 51.5047L244.532 51.6272C244.624 51.7803 244.747 51.9027 244.931 51.964C245.114 52.0252 245.298 52.0252 245.451 51.9334L247.809 50.7085L249.952 47.2177C250.044 47.034 250.106 46.8196 250.136 46.6053C250.167 46.3909 250.136 46.146 250.014 45.9623L249.952 45.8398L250.044 45.7785L251.3 48.1976L251.208 48.2588L251.147 48.1364C251.147 48.1364 250.963 47.922 250.779 47.8914C250.687 47.8914 250.595 47.8914 250.534 47.9526C250.473 48.0139 250.412 48.0445 250.35 48.1057L248.36 50.9841L251.912 51.1066C251.912 51.1066 252.065 51.1066 252.127 51.0454C252.188 51.0147 252.249 50.9535 252.31 50.8616C252.402 50.7085 252.402 50.586 252.31 50.4329L252.249 50.3104L252.341 50.2492L253.474 52.4233L253.382 52.4845L253.413 52.4539Z" fill="#20434D"/>
<path d="M72.3504 90.1178C72.5647 90.1178 72.7484 90.026 72.9016 89.8729C73.0547 89.7198 73.1465 89.536 73.1465 89.3217V82.3707C73.1465 82.1564 73.0547 82.0033 72.9016 81.8808C72.7484 81.7583 72.5647 81.6664 72.3504 81.6664H72.1973V81.5439H74.7082C74.9532 81.5439 75.2288 81.5439 75.535 81.4827C75.8412 81.4215 76.0555 81.3908 76.178 81.3296V82.8913H76.0555V82.6769C76.0555 82.4932 75.9943 82.3095 75.8412 82.1564C75.7187 82.0033 75.535 81.942 75.3512 81.942H73.9427V85.7696H76.3005C76.4536 85.7696 76.6067 85.7084 76.7292 85.5859C76.8517 85.4634 76.9129 85.341 76.9129 85.1572V84.9735H77.0354V86.9332H76.9129V86.7495C76.9129 86.5964 76.8517 86.4433 76.7598 86.3208C76.6373 86.1983 76.5148 86.1371 76.3311 86.1371H73.9733V89.8423H76.6067C77.2191 89.8423 77.6784 89.7198 78.0153 89.4442C78.3215 89.1686 78.5971 88.7705 78.8114 88.2193H78.9339L78.2296 90.2403H72.2279V90.1178H72.381H72.3504Z" fill="#20434D"/>
<path d="M80.4345 86.9333C80.0058 87.4845 79.7914 88.0969 79.7914 88.7399C79.7914 89.5055 80.1283 90.1179 80.7713 90.5466C81.1388 90.7916 81.5674 90.914 82.0574 90.914C82.5473 90.914 82.9454 90.8222 83.3128 90.6385C83.9865 90.3016 84.354 89.7198 84.4458 88.8931C84.4458 88.8318 84.4458 88.7706 84.4458 88.7093C84.4458 88.4031 84.354 88.0663 84.2009 87.7294C84.0171 87.362 83.7415 87.0558 83.3741 86.7496L81.1387 85.0042C80.6488 84.6367 80.4038 84.1162 80.4038 83.5344C80.4038 82.9526 80.5876 82.432 80.9856 82.0033C81.3837 81.5746 81.9043 81.3909 82.5473 81.3909C82.8842 81.3909 83.2516 81.4215 83.6191 81.5134H84.109V83.0444H84.0171C84.0171 82.6464 83.864 82.3401 83.5884 82.0952C83.3128 81.8808 82.976 81.7583 82.5473 81.7583C82.1186 81.7583 81.7818 81.9114 81.5062 82.187C81.2306 82.4626 81.0775 82.8301 81.0775 83.2588C81.0775 83.6875 81.2612 84.0549 81.6287 84.3305L83.9253 86.1372C84.8439 86.8414 85.3032 87.7294 85.3032 88.7399C85.3032 89.5055 84.997 90.1485 84.3846 90.6997C83.864 91.159 83.1597 91.404 82.3024 91.404C81.7818 91.404 81.2919 91.3121 80.8938 91.0978C80.1283 90.7303 79.6383 90.1179 79.4852 89.2299C79.4852 89.1074 79.4546 88.9237 79.4546 88.7399C79.4546 88.5562 79.5158 88.25 79.6383 87.9132C79.7608 87.5763 79.9751 87.2089 80.312 86.8414L80.4345 86.9333Z" fill="#20434D"/>
<path d="M85.0581 84.0243C84.8132 83.7181 84.6907 83.4119 84.6907 83.1056C84.6907 82.7994 84.7519 82.5545 84.905 82.3401C85.0581 82.1258 85.2725 81.942 85.5787 81.7889C85.8849 81.6358 86.2524 81.5746 86.6504 81.5746H91.7335C91.9785 81.5746 92.2847 81.5746 92.5909 81.5134C92.8971 81.4521 93.1115 81.4215 93.234 81.3602V82.9219H93.1115V82.7076C93.1115 82.4932 93.0502 82.3401 92.8971 82.187C92.744 82.0339 92.5909 81.9727 92.4072 81.942H90.0494V89.3523C90.0494 89.6586 90.2025 89.8729 90.4474 90.026C90.5699 90.0873 90.6924 90.1179 90.8455 90.1179H90.9986V90.2404H88.2733V90.1179H88.4264C88.6408 90.1179 88.8245 90.0566 88.9776 89.9035C89.1307 89.7504 89.2226 89.5667 89.2226 89.383V81.942H86.6198C85.9461 81.942 85.4868 82.1564 85.1806 82.5851C85.0275 82.7994 84.9356 83.0138 84.9356 83.2588C84.9356 83.5037 84.9969 83.7487 85.1194 83.9937L85.0275 84.0549L85.0581 84.0243Z" fill="#20434D"/>
<path d="M93.9383 90.1178C93.9383 90.1178 93.6933 90.2709 93.5402 90.2709C93.3871 90.2709 93.2646 90.2097 93.1421 90.1178C93.0196 89.9953 92.989 89.8728 92.989 89.7197C92.989 89.5666 93.0503 89.4441 93.1421 89.3217C93.234 89.1992 93.3871 89.1685 93.5402 89.1685C93.6933 89.1685 93.8158 89.2298 93.9383 89.3217C94.0607 89.4135 94.0914 89.5666 94.0914 89.7197C94.0914 89.8728 94.0301 89.9953 93.9383 90.1178Z" fill="#20434D"/>
<path d="M251.392 82.6156C252.218 82.6156 252.892 82.7993 253.382 83.1974C253.872 83.5649 254.117 84.0854 254.117 84.7591C254.117 85.3409 253.903 85.8921 253.504 86.4739C253.351 86.6882 253.229 86.8413 253.106 86.9944C252.984 87.1475 252.831 87.3312 252.616 87.515C252.402 87.6987 252.249 87.8824 252.127 88.0049C252.004 88.1274 251.82 88.2805 251.606 88.4642C251.361 88.6786 251.208 88.8011 251.116 88.8623C251.024 88.9235 250.871 89.046 250.626 89.2298C250.381 89.4135 250.259 89.5053 250.228 89.536H253.137C253.504 89.536 253.78 89.4747 253.964 89.3522C254.148 89.2298 254.362 88.9848 254.607 88.6173H254.729L254.148 90.2402H249.003V90.1178C251.82 87.7906 253.229 86.0145 253.229 84.7591C253.229 84.1773 253.076 83.7486 252.739 83.4424C252.433 83.1362 252.004 82.9524 251.453 82.9524C250.84 82.9524 250.35 83.1055 250.014 83.3811C249.677 83.6567 249.493 84.0548 249.524 84.5754H249.401L249.187 83.3199C249.432 83.1055 249.738 82.9524 250.167 82.7993C250.595 82.6768 250.994 82.585 251.422 82.585L251.392 82.6156Z" fill="#20434D"/>
<path d="M256.689 83.6874C257.332 82.9831 258.19 82.6156 259.261 82.6156C260.333 82.6156 261.16 82.9831 261.833 83.6874C262.476 84.3917 262.813 85.3409 262.813 86.5045C262.813 87.6681 262.476 88.6174 261.833 89.3216C261.19 90.0259 260.333 90.3934 259.261 90.3934C258.19 90.3934 257.363 90.0259 256.689 89.3216C256.046 88.6174 255.709 87.6681 255.709 86.5045C255.709 85.3409 256.046 84.3917 256.689 83.6874ZM261.19 83.963C260.7 83.3199 260.057 82.9831 259.261 82.9831C258.465 82.9831 257.822 83.2893 257.332 83.963C256.842 84.606 256.597 85.4634 256.597 86.5045C256.597 87.5456 256.842 88.403 257.332 89.0461C257.822 89.6891 258.465 90.0259 259.261 90.0259C259.782 90.0259 260.241 89.8728 260.67 89.5972C261.099 89.3216 261.374 88.893 261.619 88.3418C261.833 87.8212 261.956 87.2088 261.956 86.5045C261.956 85.4634 261.711 84.606 261.221 83.963H261.19Z" fill="#20434D"/>
<path d="M266.243 82.6156C267.07 82.6156 267.744 82.7993 268.234 83.1974C268.723 83.5649 268.968 84.0854 268.968 84.7591C268.968 85.3409 268.754 85.8921 268.356 86.4739C268.203 86.6882 268.08 86.8413 267.958 86.9944C267.835 87.1475 267.682 87.3313 267.468 87.515C267.254 87.6987 267.101 87.8824 266.978 88.0049C266.856 88.1274 266.672 88.2805 266.458 88.4642C266.213 88.6786 266.059 88.8011 265.968 88.8623C265.876 88.9236 265.723 89.046 265.478 89.2298C265.233 89.4135 265.11 89.5054 265.08 89.536H267.989C268.356 89.536 268.632 89.4747 268.815 89.3523C268.999 89.2298 269.213 88.9848 269.458 88.6173H269.581L268.999 90.2403H263.855V90.1178C266.672 87.7906 268.08 86.0146 268.08 84.7591C268.08 84.1773 267.927 83.7486 267.591 83.4424C267.284 83.1362 266.856 82.9524 266.304 82.9524C265.692 82.9524 265.202 83.1056 264.865 83.3811C264.528 83.6567 264.345 84.0548 264.375 84.5754H264.253L264.038 83.3199C264.283 83.1056 264.59 82.9524 265.018 82.7993C265.447 82.6769 265.845 82.585 266.274 82.585L266.243 82.6156Z" fill="#20434D"/>
<path d="M271.54 83.6874C272.183 82.9831 273.041 82.6156 274.113 82.6156C275.184 82.6156 276.011 82.9831 276.685 83.6874C277.328 84.3917 277.665 85.3409 277.665 86.5045C277.665 87.6681 277.328 88.6174 276.685 89.3216C276.042 90.0259 275.184 90.3934 274.113 90.3934C273.041 90.3934 272.214 90.0259 271.54 89.3216C270.897 88.6174 270.561 87.6681 270.561 86.5045C270.561 85.3409 270.897 84.3917 271.54 83.6874ZM276.042 83.963C275.552 83.3199 274.909 82.9831 274.113 82.9831C273.316 82.9831 272.673 83.2893 272.183 83.963C271.694 84.606 271.449 85.4634 271.449 86.5045C271.449 87.5456 271.694 88.403 272.183 89.0461C272.673 89.6891 273.316 90.0259 274.113 90.0259C274.633 90.0259 275.092 89.8728 275.521 89.5972C275.95 89.3216 276.225 88.893 276.47 88.3418C276.685 87.8212 276.807 87.2088 276.807 86.5045C276.807 85.4634 276.562 84.606 276.072 83.963H276.042Z" fill="#20434D"/>
</svg>
